<svg id="e3h6cGZC5TS1" xmlns="http://www.w3.org/2000/svg" xmlns:xlink="http://www.w3.org/1999/xlink" viewBox="0 0 30 30" shape-rendering="geometricPrecision" text-rendering="geometricPrecision"><path d="M8.5315,17.592877c0-1.380928.419102-2.635057,1.101564-3.560701l-3.31722-2.547932L12.512992,6.72426l6.197148,4.759984-3.31722,2.547932c.682462.925644,1.101564,2.179797,1.101564,3.560701c0,2.847942-1.782573,5.156665-3.981492,5.156665s-3.981492-2.308723-3.981492-5.156665Z" transform="matrix(.8 0 0 0.55 2.08676 2.41214)" fill="rgba(210,219,237,0)" stroke="#000" stroke-linecap="round"/><path d="M6.315844,17.80986c0-2.376991,2.774564-4.30392,6.197148-4.30392s6.197148,1.926929,6.197148,4.30392c0,0,0,0,0,0h-12.394296c0,0,0,0,0,0Z" transform="matrix(.7 0 0 0.8 3.338058 4.119636)" fill="rgba(210,219,237,0)" stroke="#000" stroke-linecap="round"/><path d="" transform="translate(-2.902848-4.881514)" fill="none" stroke="#3f5787" stroke-width="0.5" stroke-linecap="round"/><path d="M21.197148,10.728013L15,13.850683l-6.197148-3.12267" transform="matrix(.8 0 0 0.846843 0.097153-.385571)" fill="none" stroke="#000" stroke-linecap="round"/><path d="M8.802852,10.728013v3.12267" transform="translate(-1.663417-1.771912)" fill="none" stroke="#000" stroke-linecap="round"/></svg>
