<svg id="eTgQqJavskI1" xmlns="http://www.w3.org/2000/svg" xmlns:xlink="http://www.w3.org/1999/xlink" viewBox="0 0 30 30" shape-rendering="geometricPrecision" text-rendering="geometricPrecision"><rect width="25.804029" height="12.164862" rx="0" ry="0" transform="matrix(.438864 0 0 0.643404 6.306449 9.787575)" fill="rgba(255,255,255,0)" stroke="#000" stroke-width="0.8" stroke-linecap="round"/><path d="" transform="matrix(.735236 0 0 0.714134 3.868183 3.66539)" fill="none" stroke="#3f5787" stroke-width="0.5"/><path d="M22.48032,4.227704h3.324663" transform="matrix(.598321 0 0 0.643404 1.572078 8.219166)" fill="none" stroke="#000" stroke-width="0.8" stroke-linecap="round"/><path d="M23.135178,5.159617l2.065321.050374" transform="matrix(.598321 0 0 0.643404 1.820095 8.447088)" fill="none" stroke="#000" stroke-width="0.8" stroke-linecap="round"/><path d="" transform="matrix(.735236 0 0 0.714134 3.894857 4.298996)" fill="none" stroke="#3f5787" stroke-width="0.5"/><path d="M3.686014,13.75758l22.11897-.122983" transform="matrix(.411177 0 0 0.643405 5.61373 7.952609)" fill="none" stroke="#000" stroke-width="0.5" stroke-linecap="round"/><path d="M3.058044,5.159617l.62797-.931912.830037.931913" transform="matrix(.486099 0 0 0.854144 5.288454 6.863372)" fill="none" stroke="#000" stroke-width="0.5" stroke-linecap="round"/><path d="M3.686014,13.757581L3.584981,4.227706" transform="matrix(-.598331 0 0 0.667511 9.27434 7.698347)" fill="none" stroke="#000" stroke-width="0.5"/><path d="M25.804984,13.634598l-.604485-.827581" transform="matrix(1.702137 0 0 0.643404-27.12894 7.897377)" fill="none" stroke="#000" stroke-width="0.5" stroke-linecap="round"/><path d="M25.804985,13.634598l-.632004.608465" transform="matrix(1.563555 0 0 0.637613-23.583324 8.115469)" fill="none" stroke="#000" stroke-width="0.5" stroke-linecap="round"/><path d="" transform="matrix(.598321 0 0 0.643404 0.582329 6.650594)" fill="none" stroke="#3f5787" stroke-width="0.8"/><path d="" transform="matrix(.598321 0 0 0.643404 0.605421 6.896599)" fill="none" stroke="#3f5787" stroke-width="0.8"/><path d="" transform="matrix(.598321 0 0 0.643404-.056753 4.412562)" fill="none" stroke="#3f5787" stroke-width="0.5"/><path d="" transform="matrix(.598321 0 0 0.643404 0.859435 6.42509)" fill="none" stroke="#3f5787" stroke-width="0.8"/><path d="" transform="matrix(.598321 0 0 0.643404 1.252001 6.42509)" fill="none" stroke="#3f5787" stroke-width="0.8"/><path d="M7.627938,4.258663q3.679299,15.349575,5.978861.229956" transform="matrix(1.081582 0 0 0.643404 0.081414 8.495636)" fill="none" stroke="#000" stroke-width="0.4" stroke-linecap="round"/><path d="M5.947031,15l-4.1447,5.674734l1.78265.073788L7.800397,15" transform="matrix(.409893 0 0 0.485653 6.390572 10.273278)" fill="none" stroke="#000" stroke-width="0.8" stroke-linecap="round"/><path d="" transform="matrix(.598321 0 0 0.643404 5.504619 10.132406)" fill="none" stroke="#3f5787" stroke-width="0.8"/><path d="M23.598752,15l3.529105,5.748522h1.726974Q25.360244,15,25.431492,15" transform="matrix(.475932 0 0 0.485653 3.541891 10.273278)" fill="none" stroke="#000" stroke-width="0.8" stroke-linecap="round"/></svg>
